<svg fill='white' height="50px" viewBox="0 0 512.00105 512.00105" width="50px"  xmlns="http://www.w3.org/2000/svg"><path d="m256 0c-141.492188 0-256 114.496094-256 256 0 141.691406 114.90625 256 256 256 141.828125 0 256-115.105469 256-256 0-142.105469-115.285156-256-256-256zm97.449219 457.292969c-19.757813-43.425781 12.152343-93.273438 60.136719-93.273438 11.695312 0 23.078124 3.09375 33.050781 8.867188-21.871094 35.664062-54.222657 65.550781-93.1875 84.40625zm34.289062-381.972657c25.210938 18.378907 46.34375 41.828126 61.996094 68.972657-40.265625 8.8125-75.136719-29.691407-61.996094-68.972657zm-261.933593 362.453126c-20.316407-14.578126-38.261719-32.476563-53.019532-53.570313 32.542969-9.523437 62.914063 20.992187 53.019532 53.570313zm28.164062 17.226562c26.679688-61.835938-36.054688-125.070312-98.0625-99.152344-15.648438-31.292968-23.5-64.976562-23.5-99.847656 0-168.011719 179.246094-275.785156 327.363281-198.101562-29.417969 67.035156 34.179688 138.121093 104.285157 116.070312 21.851562 55.234375 20.359374 116.664062-2.523438 170.132812-65.367188-36.496093-146.359375 10.914063-146.359375 85.925782 0 13.683594 2.792969 26.964844 8.152344 39.246094-54.40625 17.179687-115.726563 13.253906-169.355469-14.273438zm0 0"/><path d="m131.601562 163.136719c-41.464843 0-75.199218 33.738281-75.199218 75.203125s33.734375 75.203125 75.199218 75.203125c41.46875 0 75.203126-33.738281 75.203126-75.203125s-33.738282-75.203125-75.203126-75.203125zm0 118c-23.597656 0-42.796874-19.199219-42.796874-42.796875s19.199218-42.796875 42.796874-42.796875c23.597657 0 42.796876 19.199219 42.796876 42.796875s-19.199219 42.796875-42.796876 42.796875zm0 0"/><path d="m333.398438 273.109375c0-28.140625-22.894532-51.03125-51.03125-51.03125-28.140626 0-51.03125 22.890625-51.03125 51.03125 0 28.136719 22.890624 51.027344 51.03125 51.027344 28.136718.003906 51.03125-22.890625 51.03125-51.027344zm-51.03125 18.625c-10.269532 0-18.625-8.355469-18.625-18.625 0-10.273437 8.355468-18.628906 18.625-18.628906 10.269531 0 18.625 8.355469 18.625 18.628906 0 10.269531-8.355469 18.625-18.625 18.625zm0 0"/><path d="m295.015625 141.597656c0-28.140625-22.894531-51.03125-51.03125-51.03125s-51.03125 22.894532-51.03125 51.03125c0 28.140625 22.894531 51.03125 51.03125 51.03125s51.03125-22.890625 51.03125-51.03125zm-69.65625 0c0-10.269531 8.355469-18.625 18.625-18.625s18.625 8.355469 18.625 18.625c0 10.269532-8.355469 18.625-18.625 18.625-10.273437 0-18.625-8.355468-18.625-18.625zm0 0"/></svg>