<svg class="svg" fill="white" xmlns="http://www.w3.org/2000/svg"  viewBox="0 0 50 50" width="50px" height="50px"><path fill="none" stroke="#000000" stroke-miterlimit="10" stroke-width="2" d="M36,44.99H14c-4.971,0-9-4.029-9-9v-22 c0-4.971,4.029-9,9-9h22c4.971,0,9,4.029,9,9v22C45,40.961,40.971,44.99,36,44.99z"/><path d="M36,44.99H14c-4.971,0-9-4.029-9-9v-22c0-4.971,4.029-9,9-9h22c4.971,0,9,4.029,9,9v22C45,40.961,40.971,44.99,36,44.99z M25,8C15.61,8,8,15.61,8,25s7.61,17,17,17s17-7.61,17-17S34.39,8,25,8z M21.804,11.372C22.83,11.13,23.9,11,25,11 c6.333,0,11.683,4.209,13.411,9.981c0.377,1.26-0.617,2.519-1.932,2.519h-1.622c-0.443-2.896-2.124-5.583-4.856-7.16 c-2.731-1.577-5.901-1.697-8.634-0.634l-0.802-1.389C19.901,13.168,20.513,11.677,21.804,11.372z M17,25 c0-2.412,1.083-4.57,2.781-6.039L22.691,24c0.357,0.619,0.357,1.381,0,2l-2.907,5.036C18.088,29.567,17,27.411,17,25z M22.381,17.465c2.12-0.734,4.531-0.598,6.619,0.607c2.089,1.206,3.417,3.223,3.84,5.428h-5.819c-0.715,0-1.375-0.381-1.732-1 L22.381,17.465z M25.288,27.5c0.357-0.619,1.018-1,1.732-1h5.815c-0.424,2.203-1.747,4.223-3.835,5.428 c-2.089,1.206-4.499,1.347-6.621,0.611L25.288,27.5z M14.809,34.578C12.45,32.075,11,28.71,11,25s1.45-7.075,3.809-9.578 c0.907-0.963,2.501-0.741,3.163,0.404l0.801,1.388C16.486,19.046,15,21.845,15,25c0,3.154,1.481,5.959,3.768,7.794l-0.797,1.38 C17.31,35.319,15.716,35.54,14.809,34.578z M38.411,29.019C36.683,34.791,31.333,39,25,39c-1.1,0-2.17-0.13-3.196-0.372 c-1.291-0.305-1.903-1.796-1.24-2.945l0.806-1.397C24.1,35.35,27.267,35.238,30,33.66c2.731-1.577,4.42-4.262,4.866-7.16h1.612 C37.794,26.5,38.788,27.759,38.411,29.019z"/></svg>